<svg xmlns="http://www.w3.org/2000/svg" width="20" height="20" viewBox="0 0 20 20" fill="none">
  <path fill-rule="evenodd" clip-rule="evenodd" d="M5.33 0.000488281H14.669C18.07 0.000488281 19.99 1.92949 20 5.33049V14.6705C20 18.0705 18.07 20.0005 14.669 20.0005H5.33C1.929 20.0005 0 18.0705 0 14.6705V5.33049C0 1.92949 1.929 0.000488281 5.33 0.000488281ZM10.049 15.8605C10.48 15.8605 10.839 15.5405 10.879 15.1105V4.92049C10.919 4.61049 10.77 4.29949 10.5 4.13049C10.219 3.96049 9.879 3.96049 9.61 4.13049C9.339 4.29949 9.19 4.61049 9.219 4.92049V15.1105C9.27 15.5405 9.629 15.8605 10.049 15.8605ZM14.65 15.8605C15.07 15.8605 15.429 15.5405 15.48 15.1105V11.8305C15.509 11.5095 15.36 11.2105 15.089 11.0405C14.82 10.8705 14.48 10.8705 14.2 11.0405C13.929 11.2105 13.78 11.5095 13.82 11.8305V15.1105C13.86 15.5405 14.219 15.8605 14.65 15.8605ZM6.219 15.1105C6.179 15.5405 5.82 15.8605 5.389 15.8605C4.959 15.8605 4.599 15.5405 4.56 15.1105V8.20049C4.53 7.88949 4.679 7.58049 4.95 7.41049C5.219 7.24049 5.56 7.24049 5.83 7.41049C6.099 7.58049 6.25 7.88949 6.219 8.20049V15.1105Z" fill="#605BFF"/>
</svg>